<?xml version="1.0" encoding="UTF-8"?>
<!DOCTYPE svg PUBLIC "-//W3C//DTD SVG 1.0//EN" "http://www.w3.org/TR/2001/REC-SVG-20010904/DTD/svg10.dtd">
<!-- Creator: CorelDRAW X8 -->
<svg xmlns="http://www.w3.org/2000/svg" xml:space="preserve" width="150mm" height="15.1456mm" version="1.0" style="shape-rendering:geometricPrecision; text-rendering:geometricPrecision; image-rendering:optimizeQuality; fill-rule:evenodd; clip-rule:evenodd"
viewBox="0 0 18594 1877"
 xmlns:xlink="http://www.w3.org/1999/xlink">
 <defs>
  <style type="text/css">
   <![CDATA[
    .fil1 {fill:url(#id0);fill-rule:nonzero}
    .fil0 {fill:url(#id1);fill-rule:nonzero}
   ]]>
  </style>
  <linearGradient id="id0" gradientUnits="userSpaceOnUse" x1="12280.6" y1="1877.46" x2="12280.6" y2="0">
   <stop offset="0" style="stop-opacity:1; stop-color:#0355B5"/>
   <stop offset="1" style="stop-opacity:1; stop-color:#2382D1"/>
  </linearGradient>
  <linearGradient id="id1" gradientUnits="userSpaceOnUse" x1="2916.71" y1="1877.46" x2="2916.71" y2="0">
   <stop offset="0" style="stop-opacity:1; stop-color:#1C2E40"/>
   <stop offset="1" style="stop-opacity:1; stop-color:#546273"/>
  </linearGradient>
 </defs>
 <g id="Слой_x0020_1">
  <metadata id="CorelCorpID_0Corel-Layer"/>
  <g id="_3067031523808">
   <path class="fil0" d="M1906 1829l-305 0 -37 -137c-165,124 -362,185 -590,185 -181,0 -346,-41 -494,-122 -148,-82 -265,-195 -351,-338 -86,-143 -129,-302 -129,-477 0,-178 43,-339 130,-482 86,-143 204,-255 352,-336 148,-81 312,-122 492,-122 161,0 307,28 439,84 131,57 239,139 324,247 85,109 141,239 165,392l-505 2c-26,-93 -79,-161 -157,-204 -78,-44 -166,-65 -264,-65 -81,0 -156,19 -222,59 -67,39 -120,95 -159,168 -39,73 -58,159 -58,257 0,100 20,186 59,259 39,73 93,129 159,166 67,38 141,57 221,57 80,0 155,-19 224,-55 70,-37 124,-91 163,-162l-381 0 0 -318 922 0 0 210 2 732zm1264 -1783l501 0 -696 1034 0 749 -522 0 0 -747 -694 -1036 502 0 442 663 467 -663zm2663 0l0 1783 -484 0 0 -805 -320 805 -447 0 -342 -814 0 814 -486 0 0 -1783 555 0 495 1227 488 -1227 541 0z"/>
   <path class="fil1" d="M5967 528l0 -482 1720 0 -1720 482zm1720 -482l0 484 -614 0 0 1299 -484 0 0 -1299 -622 0 0 -484 1720 0zm1300 1781l-403 -576 -301 0 0 576 -464 0 0 -1784 1099 0c122,0 230,25 324,75 94,50 167,119 218,209 52,89 78,192 78,309l0 10c0,153 -36,279 -109,378 -73,100 -174,167 -302,200l423 603 -563 0zm95 -1176c0,-63 -11,-109 -33,-138 -21,-29 -49,-46 -83,-53 -35,-6 -84,-9 -150,-9l-71 0c-97,3 -251,5 -462,5l0 383 529 0 4 0c66,0 115,-3 150,-10 34,-6 62,-23 83,-49 22,-27 33,-70 33,-129zm2486 1178l-489 0 -136 -306 -825 0 -135 306 -490 0 789 -1783 497 0 789 1783zm-1036 -1239l-236 531 470 0 -234 -531zm893 350c0,-178 43,-339 129,-482 86,-143 203,-255 352,-336 149,-81 314,-122 495,-122 162,0 309,32 440,95 132,64 239,153 323,268 84,115 140,249 167,403l-503 0c-20,-64 -53,-120 -100,-167 -46,-47 -98,-83 -156,-107 -58,-24 -114,-36 -169,-36 -78,0 -153,19 -226,57 -72,39 -131,95 -177,168 -45,73 -68,159 -68,259 0,100 23,186 67,259 45,73 103,129 174,166 72,38 148,57 230,57 90,0 174,-27 250,-80 77,-53 134,-128 171,-226l505 0c-29,153 -85,286 -169,401 -84,115 -191,204 -321,266 -129,63 -276,94 -438,94 -180,0 -344,-41 -493,-122 -149,-82 -267,-195 -353,-338 -87,-143 -130,-302 -130,-477zm2908 -77l793 966 -597 0 -590 -747 0 747 -486 0 0 -1783 486 0 0 619 555 -619 602 0 -763 817zm2231 272l-909 0 0 272 1074 -9 0 431 -1560 0 0 -1783 1560 0 2 431 -1076 0 0 236 909 0 0 422zm1467 692l-403 -576 -301 0 0 576 -464 0 0 -1784 1100 0c122,0 229,25 323,75 94,50 167,119 219,209 51,89 77,192 77,309l0 10c0,153 -36,279 -109,378 -73,100 -173,167 -302,200l423 603 -563 0zm95 -1176c0,-63 -11,-109 -33,-138 -21,-29 -49,-46 -83,-53 -34,-6 -84,-9 -150,-9l-71 0c-97,3 -251,5 -462,5l0 383 529 0 4 0c66,0 116,-3 150,-10 34,-6 62,-23 83,-49 22,-27 33,-70 33,-129z"/>
  </g>
 </g>
</svg>
