<?xml version="1.0" encoding="UTF-8"?>
<!DOCTYPE svg PUBLIC "-//W3C//DTD SVG 1.0//EN" "http://www.w3.org/TR/2001/REC-SVG-20010904/DTD/svg10.dtd">
<!-- Creator: CorelDRAW X8 -->
<svg xmlns="http://www.w3.org/2000/svg" xml:space="preserve" width="189.683mm" height="42.4999mm" version="1.0" style="shape-rendering:geometricPrecision; text-rendering:geometricPrecision; image-rendering:optimizeQuality; fill-rule:evenodd; clip-rule:evenodd"
viewBox="0 0 17956 4023"
 xmlns:xlink="http://www.w3.org/1999/xlink">
 <defs>
  <style type="text/css">
   <![CDATA[
    .fil4 {fill:#FEFEFE}
    .fil3 {fill:#FDFDFD}
    .fil5 {fill:#2786DB;fill-rule:nonzero}
    .fil2 {fill:url(#id0)}
    .fil1 {fill:url(#id1);fill-rule:nonzero}
    .fil0 {fill:url(#id2);fill-rule:nonzero}
    .fil6 {fill:url(#id3);fill-rule:nonzero}
   ]]>
  </style>
  <linearGradient id="id0" gradientUnits="userSpaceOnUse" x1="1523.3" y1="4023.28" x2="1523.3" y2="0">
   <stop offset="0" style="stop-opacity:1; stop-color:#1A2A3D"/>
   <stop offset="1" style="stop-opacity:1; stop-color:#536172"/>
  </linearGradient>
  <linearGradient id="id1" gradientUnits="userSpaceOnUse" x1="13135" y1="2728.52" x2="13135" y2="1294.76">
   <stop offset="0" style="stop-opacity:1; stop-color:#0355B5"/>
   <stop offset="1" style="stop-opacity:1; stop-color:#2382D1"/>
  </linearGradient>
  <linearGradient id="id2" gradientUnits="userSpaceOnUse" x1="5983.99" y1="2728.52" x2="5983.99" y2="1294.76">
   <stop offset="0" style="stop-opacity:1; stop-color:#1C2E40"/>
   <stop offset="1" style="stop-opacity:1; stop-color:#546273"/>
  </linearGradient>
  <linearGradient id="id3" gradientUnits="userSpaceOnUse" x1="1246.11" y1="2527.96" x2="1246.11" y2="341.903">
   <stop offset="0" style="stop-opacity:1; stop-color:#0259C9"/>
   <stop offset="1" style="stop-opacity:1; stop-color:#46A5EB"/>
  </linearGradient>
 </defs>
 <g id="Слой_x0020_1">
  <metadata id="CorelCorpID_0Corel-Layer"/>
  <g id="_1594955591616">
   <path class="fil0" d="M5212 2692l-232 0 -29 -105c-126,94 -276,142 -451,142 -138,0 -264,-32 -377,-94 -113,-63 -202,-149 -268,-258 -66,-109 -98,-231 -98,-364 0,-137 33,-259 99,-369 66,-109 155,-194 269,-256 113,-62 238,-93 375,-93 124,0 235,21 335,64 101,43 183,106 248,189 65,83 107,182 126,299l-386 2c-20,-71 -60,-124 -119,-157 -60,-33 -127,-49 -202,-49 -62,0 -119,15 -170,45 -51,30 -91,73 -121,129 -29,55 -44,121 -44,196 0,76 15,142 45,197 30,56 70,99 122,127 51,29 107,44 168,44 61,0 118,-14 171,-43 53,-28 95,-69 125,-123l-292 0 0 -243 705 0 0 160 1 560zm965 -1362l383 0 -532 789 0 573 -398 0 0 -571 -530 -791 383 0 338 506 356 -506zm2034 0l0 1362 -369 0 0 -615 -245 615 -341 0 -262 -622 0 622 -371 0 0 -1362 424 0 379 937 372 -937 413 0z"/>
   <path class="fil1" d="M8314 1698l0 -368 1313 0 -1313 368zm1313 -368l0 370 -469 0 0 992 -370 0 0 -992 -474 0 0 -370 1313 0zm993 1360l-308 -440 -230 0 0 440 -355 0 0 -1362 840 0c93,0 176,19 247,57 72,38 128,91 167,159 40,68 60,147 60,237l0 7c0,117 -28,213 -84,289 -55,76 -132,127 -230,153l323 460 -430 0zm72 -898c0,-48 -8,-83 -25,-105 -16,-22 -38,-36 -64,-41 -26,-5 -64,-7 -114,-7l-54 0c-74,2 -192,4 -353,4l0 292 404 0 3 0c50,0 88,-2 114,-7 26,-5 48,-18 64,-38 17,-20 25,-53 25,-98zm1899 900l-374 0 -104 -234 -629 0 -104 234 -374 0 602 -1362 381 0 602 1362zm-792 -946l-180 405 359 0 -179 -405zm682 267c0,-137 33,-259 99,-369 65,-109 155,-194 269,-256 113,-62 239,-93 378,-93 124,0 236,24 336,72 100,49 182,117 247,205 64,87 106,190 127,308l-384 0c-15,-49 -41,-92 -76,-128 -36,-36 -76,-63 -120,-82 -44,-18 -87,-27 -129,-27 -59,0 -116,14 -172,44 -55,29 -101,72 -135,128 -35,56 -52,121 -52,198 0,76 17,142 51,197 34,56 79,99 133,127 55,29 113,44 175,44 69,0 133,-21 192,-61 58,-41 102,-98 130,-173l386 0c-22,116 -65,219 -129,306 -65,88 -146,156 -245,204 -99,48 -211,72 -335,72 -138,0 -263,-32 -377,-94 -113,-63 -203,-149 -269,-258 -67,-109 -100,-231 -100,-364zm2221 -59l606 738 -456 0 -450 -571 0 571 -372 0 0 -1362 372 0 0 473 423 -473 460 0 -583 624zm1704 208l-694 0 0 208 820 -8 0 330 -1191 0 0 -1362 1191 0 2 329 -822 0 0 181 694 0 0 322zm1121 528l-308 -440 -230 0 0 440 -355 0 0 -1362 840 0c93,0 176,19 247,57 72,38 127,91 167,159 40,68 59,147 59,237l0 7c0,117 -27,213 -83,289 -56,76 -132,127 -231,153l323 460 -429 0zm72 -898c0,-48 -8,-83 -25,-105 -17,-22 -38,-36 -64,-41 -26,-5 -64,-7 -114,-7l-54 0c-74,2 -192,4 -353,4l0 292 404 0 3 0c50,0 88,-2 114,-7 26,-5 47,-18 64,-38 17,-20 25,-53 25,-98z"/>
  </g>
  <g id="_1594955602528">
   <path class="fil2" d="M1523 4023l-186 -225c-137,-164 -1337,-1455 -1337,-2184 0,-876 598,-1614 1523,-1614 926,0 1524,738 1524,1614 0,728 -1201,2019 -1336,2184l-188 225zm492 -2400c0,-249 -220,-624 -493,-624 -272,0 -493,375 -493,624 0,249 221,278 493,278 273,0 493,-29 493,-278z"/>
   <g>
    <path class="fil3" d="M1533 395c610,0 1105,495 1105,1105 0,610 -495,1105 -1105,1105 -610,0 -1105,-495 -1105,-1105 0,-610 495,-1105 1105,-1105z"/>
   </g>
   <circle class="fil4" cx="1533" cy="1500" r="1025"/>
   <g>
    <path class="fil3" d="M1674 883l0 0 -17 14 -24 19 0 0 -85 68c-9,7 -18,15 -26,23l-11 10 -11 3c-21,7 -47,4 -67,0 -26,-6 -51,-14 -75,-25l-244 -113c-6,-4 -14,-5 -22,-3 -20,6 -28,31 -31,49 -11,53 -24,105 -36,158 -20,90 -41,180 -62,271 -21,90 -42,180 -62,271 173,-124 374,-175 591,-155 26,3 52,6 78,10l27 -27c119,-119 294,-167 457,-180 94,-7 189,-4 283,8l46 6 0 910 -28 0c-197,237 -486,378 -797,378 -113,8 -232,1 -345,-12 -136,-17 -273,-44 -405,-82 -198,-56 -418,-147 -577,-284l-15 0 -16 -19c-27,-32 -53,-65 -78,-98l-8 -11 -2 -13c-11,-87 6,-199 24,-283 64,-291 219,-592 376,-842 225,-361 593,-599 1016,-645l12 -2 13 5c51,20 97,60 106,117 7,42 22,89 35,129 14,48 30,96 46,144 1,4 3,8 5,12 4,12 7,23 8,35 5,53 -16,104 -57,137l-22 17z"/>
   </g>
   <g>
    <path class="fil5" d="M2330 1337l0 809 0 0 0 0c-183,231 -462,379 -774,379l0 0c-340,24 -991,-93 -1304,-379l-12 0c-25,-30 -50,-61 -75,-95 -3,-22 -11,-109 23,-263 37,-166 130,-443 369,-826 219,-350 574,-576 977,-620 15,6 65,28 73,76 11,66 66,232 82,281 2,5 4,10 6,14 2,7 4,14 5,22 3,34 -11,68 -38,89l-28 22 -96 -83c-4,-3 -8,-7 -12,-10l-4 -4c-2,-1 -12,-10 -11,-19 1,-4 7,-25 71,-53 13,-7 19,-23 12,-37 -6,-13 -20,-19 -34,-14 -63,28 -97,59 -102,96 -4,26 7,51 30,71l4 3c4,3 8,6 11,10l87 75 -76 61c-10,8 -19,17 -29,26l-1 1c-3,1 -13,3 -41,-2 -21,-4 -42,-11 -62,-20l-244 -114c-18,-9 -39,-11 -58,-6 -26,7 -58,28 -71,90 -14,68 -125,548 -174,761 -41,35 -79,73 -114,113 -10,12 -9,29 2,40 12,10 29,9 39,-3 34,-40 72,-77 112,-111 2,-1 3,-2 4,-4 174,-145 378,-208 610,-186 92,8 182,29 269,61 67,24 107,47 108,47 14,7 30,2 37,-12 6,-13 2,-29 -11,-37 -5,-3 -105,-58 -255,-92 117,-117 292,-154 423,-165 91,-6 182,-4 272,8zm-774 1188l0 0 0 0zm-683 -808l0 0z"/>
   </g>
   <path class="fil6" d="M2330 2146l0 0c-183,231 -462,379 -774,379l0 0c-340,24 -991,-93 -1304,-379l-12 0c-25,-30 -50,-61 -75,-95 -3,-22 -11,-109 23,-263 37,-166 130,-443 369,-826 219,-350 574,-576 977,-620 15,6 65,28 73,76 11,66 66,232 82,281 2,5 4,10 6,14 2,7 4,14 5,22 3,34 -11,68 -38,89l-28 22 -96 -83c-4,-3 -8,-7 -12,-10l-4 -4c-2,-1 -12,-10 -11,-19 1,-4 7,-25 71,-53 13,-7 19,-23 12,-37 -6,-13 -20,-19 -34,-14 -63,28 -97,59 -102,96 -4,26 7,51 30,71l4 3c4,3 8,6 11,10l87 75 -76 61c-10,8 -19,17 -29,26l-1 1c-3,1 -13,3 -41,-2 -21,-4 -42,-11 -62,-20l-244 -114c-18,-9 -39,-11 -58,-6 -26,7 -58,28 -71,90 -14,68 -125,548 -174,761 -41,35 -79,73 -114,113 -10,12 -9,29 2,40 12,10 29,9 39,-3 34,-40 72,-77 112,-111 2,-1 3,-2 4,-4 174,-145 378,-208 610,-186 92,8 182,29 269,61 67,24 107,47 108,47 14,7 30,2 37,-12 6,-13 2,-29 -11,-37 -5,-3 -105,-58 -255,-92 117,-117 292,-154 423,-165 91,-6 182,-4 272,8 0,0 157,6 220,37 8,4 16,8 23,12 3,30 4,61 4,92 0,255 -91,488 -243,670l-4 -2zm-774 379l0 0m-683 -808l0 0z"/>
  </g>
 </g>
</svg>
