<?xml version="1.0" encoding="UTF-8"?>
<!DOCTYPE svg PUBLIC "-//W3C//DTD SVG 1.0//EN" "http://www.w3.org/TR/2001/REC-SVG-20010904/DTD/svg10.dtd">
<!-- Creator: CorelDRAW X8 -->
<svg xmlns="http://www.w3.org/2000/svg" xml:space="preserve" width="190.683mm" height="45.0647mm" version="1.0" style="shape-rendering:geometricPrecision; text-rendering:geometricPrecision; image-rendering:optimizeQuality; fill-rule:evenodd; clip-rule:evenodd"
viewBox="0 0 11628 2748"
 xmlns:xlink="http://www.w3.org/1999/xlink">
 <defs>
  <style type="text/css">
   <![CDATA[
    .fil4 {fill:#FEFEFE}
    .fil2 {fill:#1067C0}
    .fil3 {fill:#FDFDFD}
    .fil1 {fill:white}
    .fil0 {fill:#FEFEFE;fill-rule:nonzero}
    .fil5 {fill:#1067C0;fill-rule:nonzero}
   ]]>
  </style>
 </defs>
 <g id="Слой_x0020_1">
  <metadata id="CorelCorpID_0Corel-Layer"/>
  <g id="_1559774927008">
   <path class="fil0" d="M3419 1795l-150 0 -19 -68c-81,61 -178,92 -290,92 -89,0 -170,-21 -243,-61 -73,-40 -131,-96 -173,-166 -42,-70 -63,-148 -63,-235 0,-87 21,-166 64,-237 42,-70 100,-125 173,-165 73,-40 153,-60 242,-60 79,0 151,14 216,41 64,28 117,69 159,122 42,53 69,118 82,193l-249 1c-13,-46 -39,-80 -77,-101 -38,-21 -82,-32 -130,-32 -40,0 -77,10 -110,29 -32,19 -58,47 -77,83 -20,36 -29,78 -29,126 0,49 10,92 29,128 19,36 45,63 78,82 33,18 69,27 109,27 39,0 76,-9 110,-27 34,-18 61,-44 80,-79l-187 0 0 -157 454 0 0 103 1 361zm621 -877l247 0 -343 508 0 369 -256 0 0 -368 -342 -509 247 0 218 326 229 -326zm1310 0l0 877 -238 0 0 -396 -158 396 -219 0 -169 -401 0 401 -239 0 0 -877 273 0 244 603 240 -603 266 0z"/>
   <path class="fil0" d="M5416 1155l0 -237 846 0 -846 237zm846 -237l0 238 -302 0 0 639 -238 0 0 -639 -306 0 0 -238 846 0zm640 876l-199 -284 -148 0 0 284 -228 0 0 -878 541 0c60,0 113,13 159,37 46,25 82,59 107,103 26,43 39,94 39,152l0 5c0,75 -18,137 -54,186 -36,49 -85,82 -149,98l208 297 -276 0zm46 -579c0,-31 -5,-53 -16,-67 -10,-15 -24,-23 -41,-27 -17,-3 -41,-4 -74,-4l-34 0c-48,1 -124,2 -228,2l0 189 261 0 1 0c33,0 57,-2 74,-5 17,-3 31,-11 41,-24 11,-14 16,-35 16,-64zm1223 580l-241 0 -66 -151 -406 0 -67 151 -241 0 389 -877 244 0 388 877zm-510 -610l-116 261 232 0 -116 -261zm440 172c0,-87 21,-166 63,-237 42,-70 100,-125 173,-165 74,-40 155,-60 244,-60 80,0 152,16 217,47 64,31 117,75 158,131 42,57 69,123 83,199l-248 0c-10,-32 -26,-59 -49,-82 -23,-24 -49,-41 -77,-53 -28,-12 -56,-18 -83,-18 -38,0 -75,10 -111,29 -36,18 -65,46 -87,82 -22,36 -33,78 -33,127 0,49 10,92 32,128 22,36 51,63 86,82 35,18 73,27 113,27 44,0 85,-13 123,-39 38,-26 66,-63 84,-111l249 0c-15,75 -42,141 -84,197 -41,57 -93,100 -157,131 -64,31 -136,47 -216,47 -89,0 -169,-21 -243,-61 -73,-40 -131,-96 -173,-166 -43,-70 -64,-148 -64,-235zm1430 -38l390 476 -293 0 -290 -368 0 368 -239 0 0 -877 239 0 0 304 273 -304 296 0 -376 401zm1098 134l-447 0 0 134 528 -4 0 212 -767 0 0 -877 767 0 1 212 -529 0 0 116 447 0 0 207zm722 341l-199 -284 -148 0 0 284 -228 0 0 -878 541 0c60,0 113,13 159,37 46,25 82,59 107,103 26,43 39,94 39,152l0 5c0,75 -18,137 -54,186 -36,49 -85,82 -149,98l209 297 -277 0zm46 -579c0,-31 -5,-53 -16,-67 -10,-15 -24,-23 -41,-27 -17,-3 -41,-4 -73,-4l-35 0c-48,1 -124,2 -228,2l0 189 261 0 2 0c32,0 56,-2 73,-5 17,-3 31,-11 41,-24 11,-14 16,-35 16,-64z"/>
  </g>
  <g id="_1559774922432">
   <path class="fil1" d="M2084 1100c0,245 -185,552 -319,749 -107,157 -224,308 -345,454 -45,53 -90,106 -135,158 -25,28 -51,57 -75,86l-168 201 -167 -201c-24,-29 -50,-58 -74,-86 -46,-53 -91,-105 -136,-159 -121,-145 -239,-296 -345,-453 -134,-197 -320,-504 -320,-749 0,-605 419,-1100 1042,-1100 624,0 1042,495 1042,1100zm-786 7c0,-124 -116,-341 -257,-341 -140,0 -256,217 -256,341 0,25 4,52 22,71 45,47 175,47 234,47 60,0 190,0 235,-47 18,-19 22,-46 22,-71z"/>
  </g>
  <path class="fil2" d="M1042 2653l-120 -145c-88,-106 -861,-938 -861,-1408 0,-563 385,-1039 981,-1039 596,0 981,476 981,1039 0,470 -773,1301 -860,1408l-121 145zm317 -1546c0,-161 -142,-402 -318,-402 -175,0 -317,241 -317,402 0,160 142,179 317,179 176,0 318,-19 318,-179z"/>
  <g id="_1559774921536">
   <path class="fil3" d="M1048 315c394,0 712,319 712,712 0,393 -318,712 -712,712 -393,0 -711,-319 -711,-712 0,-393 318,-712 711,-712z"/>
  </g>
  <circle class="fil4" cx="1048" cy="1027" r="660"/>
  <g id="_1559774920864">
   <path class="fil3" d="M1139 630l0 0 -11 9 -15 12 0 0 -55 44c-6,4 -11,9 -16,14l-8 7 -7 2c-13,4 -30,2 -43,0 -17,-4 -33,-9 -48,-16l-157 -73c-5,-2 -10,-3 -14,-2 -13,4 -18,20 -21,32 -7,34 -15,68 -23,101 -13,59 -26,117 -40,175 -13,58 -26,116 -40,174 112,-79 241,-112 381,-99 17,2 34,4 50,6l18 -17c76,-77 189,-108 294,-116 61,-5 122,-3 182,5l30 4 0 586 -18 0c-127,153 -313,243 -513,244 -73,5 -150,0 -222,-8 -88,-11 -176,-28 -261,-53 -128,-36 -270,-94 -372,-183l-10 0 -10 -12c-18,-21 -34,-42 -50,-63l-5 -7 -2 -9c-7,-55 4,-128 16,-182 41,-187 141,-381 241,-542 145,-233 383,-386 655,-416l8 -1 8 3c33,13 63,39 69,75 4,27 14,58 22,84 9,31 19,62 30,92 1,3 2,6 3,8 2,7 4,15 5,23 4,33 -10,67 -37,88l-14 11z"/>
  </g>
  <g>
   <path class="fil5" d="M1562 922l0 521 0 0 0 0c-118,149 -298,244 -499,244l0 0c-219,16 -638,-59 -840,-244l-7 0c-17,-19 -33,-39 -48,-61 -2,-14 -8,-70 14,-169 24,-107 84,-286 238,-532 141,-226 370,-371 629,-400 10,4 42,18 47,49 7,43 42,150 53,181 1,3 2,7 3,9 2,5 3,10 4,14 2,23 -7,44 -24,58l-18 14 -62 -53c-3,-3 -5,-5 -8,-7l-2 -2c-2,-1 -8,-7 -7,-13 0,-2 4,-16 45,-34 8,-4 12,-15 8,-24 -4,-8 -13,-12 -22,-9 -41,18 -63,38 -66,62 -2,17 5,33 19,45l3 3c2,2 5,4 7,6l56 49 -49 39c-6,5 -12,11 -18,16l-1 1c-2,1 -9,2 -26,-1 -14,-3 -28,-7 -41,-13l-157 -73c-11,-6 -25,-7 -37,-4 -16,4 -38,18 -46,58 -8,43 -80,352 -112,490 -26,22 -50,47 -73,73 -6,7 -6,19 1,25 8,7 19,6 25,-1 22,-26 46,-50 72,-72 1,-1 2,-2 3,-2 112,-94 244,-134 393,-121 59,6 117,19 173,40 43,16 69,30 70,30 8,5 19,1 23,-7 5,-9 2,-19 -6,-24 -4,-2 -68,-38 -165,-60 75,-75 188,-99 273,-106 58,-4 117,-2 175,5zm-499 765l0 0 0 0zm-440 -520l0 0z"/>
  </g>
 </g>
</svg>
