<?xml version="1.0" encoding="UTF-8"?>
<!DOCTYPE svg PUBLIC "-//W3C//DTD SVG 1.0//EN" "http://www.w3.org/TR/2001/REC-SVG-20010904/DTD/svg10.dtd">
<!-- Creator: CorelDRAW X8 -->
<svg xmlns="http://www.w3.org/2000/svg" xml:space="preserve" width="148.491mm" height="209.595mm" version="1.0" style="shape-rendering:geometricPrecision; text-rendering:geometricPrecision; image-rendering:optimizeQuality; fill-rule:evenodd; clip-rule:evenodd"
viewBox="0 0 14001 19763"
 xmlns:xlink="http://www.w3.org/1999/xlink">
 <defs>
  <style type="text/css">
   <![CDATA[
    .fil3 {fill:black}
    .fil0 {fill:#E44D26}
    .fil2 {fill:#EBEBEB}
    .fil1 {fill:#F16529}
    .fil4 {fill:white}
   ]]>
  </style>
 </defs>
 <g id="Слой_x0020_1">
  <metadata id="CorelCorpID_0Corel-Layer"/>
  <g id="_1554323307200">
   <path class="fil0" d="M14001 3884l-1275 14289 -5734 1590 -5718 -1587 -1274 -14292 14001 0z"/>
   <path class="fil1" d="M7001 18548l4633 -1284 1090 -12212 -5723 0 0 13496z"/>
   <path class="fil2" d="M4521 8558l2480 0 0 -1753 -4396 0 42 471 431 4830 3923 0 0 -1753 -2320 0 -160 -1795zm395 4424l-1759 0 245 2753 3591 996 8 -2 0 -1824 -8 2 -1952 -527 -125 -1398z"/>
   <path class="fil3" d="M1303 0l890 0 0 880 815 0 0 -880 891 0 0 2665 -891 0 0 -892 -815 0 0 892 -890 0 0 -2665 0 0zm3767 884l-784 0 0 -884 2460 0 0 884 -785 0 0 1781 -890 0 0 -1781 0 0 -1 0zm2066 -884l929 0 571 936 571 -936 929 0 0 2665 -887 0 0 -1321 -613 948 -15 0 -613 -948 0 1321 -872 0 0 -2665zm3444 0l891 0 0 1784 1252 0 0 881 -2143 0 0 -2665 0 0z"/>
   <path class="fil4" d="M6995 12106l2158 0 -203 2273 -1955 528 0 1823 3593 -995 26 -297 412 -4614 43 -471 -4074 0 0 1753zm0 -3552l0 4 4234 0 35 -394 80 -888 41 -471 -4390 0 0 1749 0 0z"/>
  </g>
 </g>
</svg>
