<?xml version="1.0" encoding="UTF-8"?>
<!DOCTYPE svg PUBLIC "-//W3C//DTD SVG 1.0//EN" "http://www.w3.org/TR/2001/REC-SVG-20010904/DTD/svg10.dtd">
<!-- Creator: CorelDRAW X8 -->
<svg xmlns="http://www.w3.org/2000/svg" xml:space="preserve" width="107.853mm" height="59.0215mm" version="1.0" style="shape-rendering:geometricPrecision; text-rendering:geometricPrecision; image-rendering:optimizeQuality; fill-rule:evenodd; clip-rule:evenodd"
viewBox="0 0 14435 7899"
 xmlns:xlink="http://www.w3.org/1999/xlink">
 <defs>
  <style type="text/css">
   <![CDATA[
    .fil0 {fill:#2563EB}
   ]]>
  </style>
 </defs>
 <g id="Слой_x0020_1">
  <metadata id="CorelCorpID_0Corel-Layer"/>
  <path class="fil0" d="M12330 6405l1418 1380c159,155 417,152 573,-8l0 0c155,-159 152,-417 -8,-572l-1417 -1381c-45,-44 -98,-75 -155,-94 501,-605 803,-1382 803,-2230 0,-1933 -1568,-3500 -3501,-3500 -989,0 -1883,411 -2520,1071 -305,316 277,916 597,582 485,-505 1168,-819 1923,-819 1473,0 2667,1194 2667,2666 0,1473 -1194,2667 -2667,2667 -750,0 -1427,-310 -1911,-808 -267,-274 -1011,149 -539,641 637,662 1459,1001 2450,1001 826,0 1585,-286 2184,-765 19,62 54,120 103,169zm-9268 -1638l586 -1794c0,0 70,-315 -199,-411 0,0 -330,-110 -465,304l-291 1119c0,0 -24,128 -67,-9l-413 -1253c0,0 -48,-191 -369,-182 0,0 -319,-31 -413,230l-388 1231c0,0 -31,111 -68,-2l-323 -1259c0,0 -72,-259 -419,-192 0,0 -326,98 -207,472l548 1719c0,0 86,213 338,207l165 0c0,0 224,32 343,-280l361 -1164c0,0 54,-161 95,2l378 1236c0,0 105,241 348,210l152 0c0,0 221,22 308,-184zm3926 0l586 -1794c0,0 70,-315 -199,-411 0,0 -330,-110 -465,304l-291 1119c0,0 -24,128 -67,-9l-413 -1253c0,0 -48,-191 -369,-182 0,0 -319,-31 -413,230l-388 1231c0,0 -31,111 -68,-2l-323 -1259c0,0 -72,-259 -419,-192 0,0 -326,98 -207,472l548 1719c0,0 86,213 338,207l165 0c0,0 224,32 343,-280l361 -1164c0,0 54,-161 95,2l378 1236c0,0 105,241 348,210l152 0c0,0 221,22 308,-184zm3974 0l586 -1794c0,0 70,-315 -200,-411 0,0 -330,-110 -464,304l-291 1119c0,0 -24,128 -68,-9l-412 -1253c0,0 -48,-191 -369,-182 0,0 -319,-31 -413,230l-389 1231c0,0 -30,111 -67,-2l-323 -1259c0,0 -72,-259 -420,-192 0,0 -325,98 -206,472l547 1719c0,0 87,213 339,207l165 0c0,0 224,32 343,-280l361 -1164c0,0 54,-161 95,2l378 1236c0,0 104,241 348,210l152 0c0,0 221,22 308,-184z"/>
 </g>
</svg>
